<svg width="29" height="27" viewBox="0 0 29 27" fill="none" xmlns="http://www.w3.org/2000/svg">
<path d="M1.70293 14.6112C1.65424 14.595 1.61135 14.5649 1.57953 14.5246C1.54771 14.4844 1.52833 14.4356 1.5238 14.3845C1.51964 14.3333 1.5308 14.2821 1.55583 14.2373C1.58087 14.1925 1.61867 14.1561 1.66442 14.1328L26.806 1.27545C26.8502 1.25285 26.9 1.24342 26.9494 1.24834C26.9989 1.25326 27.0458 1.27235 27.0847 1.30322C27.1236 1.3341 27.1528 1.3756 27.1688 1.42261C27.1848 1.46962 27.187 1.52004 27.175 1.56823L22.5062 20.8169C22.4979 20.8512 22.4826 20.8834 22.4614 20.9115C22.4401 20.9397 22.4133 20.9632 22.3826 20.9806C22.3436 21.0031 22.2995 21.0152 22.2545 21.0156C22.229 21.0153 22.2037 21.0115 22.1793 21.004L1.70293 14.6112Z" stroke="white" stroke-width="1.82308" stroke-linecap="round" stroke-linejoin="round"/>
<path d="M12.1963 17.8916V25.2867C12.1963 25.4058 12.1659 25.5105 12.2859 25.5437C12.3092 25.5499 12.2796 25.5546 12.3047 25.5546C12.3461 25.5541 12.3865 25.542 12.4215 25.52C12.4566 25.4981 12.485 25.4669 12.5035 25.43L17.0281 19.4294" stroke="white" stroke-width="1.82308" stroke-linecap="round" stroke-linejoin="round"/>
<path d="M21.6964 7.61719L12.1958 17.8916" stroke="white" stroke-width="1.82308" stroke-linecap="round" stroke-linejoin="round"/>
</svg>
